<svg id="Layer_1" data-name="Layer 1" xmlns="http://www.w3.org/2000/svg" xmlns:xlink="http://www.w3.org/1999/xlink" viewBox="0 0 1080 1080"><defs><style>.cls-1{fill:url(#linear-gradient);}.cls-2{fill:#3a5489;}.cls-3{fill:#cdebf5;}.cls-4{fill:#f3f5ff;}.cls-5{fill:none;}.cls-6{fill:url(#linear-gradient-2);}.cls-7{fill:url(#linear-gradient-3);}.cls-8{fill:url(#linear-gradient-4);}.cls-9{fill:url(#linear-gradient-5);}.cls-10{fill:url(#linear-gradient-6);}.cls-11{fill:url(#linear-gradient-7);}</style><linearGradient id="linear-gradient" x1="-439.4" y1="1082.82" x2="1137.48" y2="237.42" gradientUnits="userSpaceOnUse"><stop offset="0" stop-color="#fee9e9"/><stop offset="0.57" stop-color="#e4d1d1" stop-opacity="0.7"/><stop offset="0.99" stop-color="#fff" stop-opacity="0.2"/></linearGradient><linearGradient id="linear-gradient-2" x1="413.58" y1="696.7" x2="503.13" y2="696.7" gradientUnits="userSpaceOnUse"><stop offset="0" stop-color="#fec7c7"/><stop offset="1" stop-color="#fe8686"/></linearGradient><linearGradient id="linear-gradient-3" x1="457.84" y1="743.51" x2="547.57" y2="743.51" xlink:href="#linear-gradient-2"/><linearGradient id="linear-gradient-4" x1="502.12" y1="790.71" x2="591.2" y2="790.71" xlink:href="#linear-gradient-2"/><linearGradient id="linear-gradient-5" x1="546.37" y1="837.44" x2="635.93" y2="837.44" xlink:href="#linear-gradient-2"/><linearGradient id="linear-gradient-6" x1="366.09" y1="648.72" x2="781.71" y2="648.72" xlink:href="#linear-gradient-2"/><linearGradient id="linear-gradient-7" x1="516.41" y1="572.56" x2="808" y2="572.56" xlink:href="#linear-gradient-2"/></defs><title>TJSP</title><path class="cls-1" d="M805.17,445.87l51.41,145.38c45.11,127.59-64.81,256.17-197.87,231.45l-151.6-28.17-151.6-28.17C222.46,741.63,166.06,582.14,254,479.28L354.2,362.07l100.19-117.2c87.94-102.87,254.26-72,299.38,55.63Z"/><path class="cls-2" d="M853.92,739.67H319.56a3.09,3.09,0,0,1-3.08-3.09V355.77a3.08,3.08,0,0,1,3.08-3.09H853.92a3.08,3.08,0,0,1,3.08,3.09V736.58A3.09,3.09,0,0,1,853.92,739.67ZM322.65,733.5H850.83V358.85H322.65Z"/><rect class="cls-2" x="320.24" y="437.35" width="14.49" height="189.59"/><path class="cls-2" d="M334.73,630H320.24a3.08,3.08,0,0,1-3.08-3.09V437.35a3.09,3.09,0,0,1,3.08-3.09h14.49a3.1,3.1,0,0,1,3.09,3.09V626.93A3.09,3.09,0,0,1,334.73,630Zm-11.4-6.17h8.32V440.43h-8.32Z"/><rect class="cls-2" x="839.75" y="437.35" width="14.49" height="189.59"/><path class="cls-2" d="M854.24,630H839.75a3.08,3.08,0,0,1-3.08-3.09V437.35a3.09,3.09,0,0,1,3.08-3.09h14.49a3.09,3.09,0,0,1,3.09,3.09V626.93A3.09,3.09,0,0,1,854.24,630Zm-11.4-6.17h8.32V440.43h-8.32Z"/><path class="cls-3" d="M473.6,265a3.09,3.09,0,0,0-2.85-1.9H410.34a3,3,0,0,0-1.75.55l-125.15,86a2.83,2.83,0,0,0-.25.24,2.44,2.44,0,0,0-.29.27,3.29,3.29,0,0,0-.42.63l-.16.29a3.11,3.11,0,0,0-.21,1.09s0,0,0,0v37.56a53.32,53.32,0,0,0,106.63,0V353.62L473,268.32A3.1,3.1,0,0,0,473.6,265Z"/><path class="cls-3" d="M593.83,264a3.09,3.09,0,0,0-2.24-1H531.17a3.07,3.07,0,0,0-2.73,1.67l-42.21,84.42a3,3,0,0,0-2.5,3v37.56A53.32,53.32,0,0,0,587.46,407l-2.78-51.84h2.6a3.09,3.09,0,0,0,3.08-2.93l4.32-86A3.11,3.11,0,0,0,593.83,264Z"/><path class="cls-2" d="M690.62,350.44,654.86,265a3.1,3.1,0,0,0-2.85-1.9H591.59a3.09,3.09,0,0,0-3.08,2.93l-4.31,86a3,3,0,0,0,.35,1.49v36.23a53.32,53.32,0,0,0,106.63,0V352.12A3,3,0,0,0,690.62,350.44Z"/><path class="cls-3" d="M790.51,349.54,714.74,264.1a3.1,3.1,0,0,0-2.31-1H652a3.09,3.09,0,0,0-2.85,4.28l36,86a3.14,3.14,0,0,0,.24.39v36a53.32,53.32,0,0,0,106.63,0V352.12A3,3,0,0,0,790.51,349.54Z"/><path class="cls-2" d="M890.63,349.21l-116-85.54a3,3,0,0,0-1.83-.61H712.43a3.09,3.09,0,0,0-2.31,5.14L786.18,354v35.72a53.32,53.32,0,0,0,106.63,0V352.12A3,3,0,0,0,890.63,349.21Z"/><path class="cls-2" d="M853.92,739.67H319.56a3.09,3.09,0,0,1-3.08-3.09V627.64a3.09,3.09,0,0,1,3.08-3.09H853.92a3.09,3.09,0,0,1,3.08,3.09V736.58A3.09,3.09,0,0,1,853.92,739.67ZM322.65,733.5H850.83V630.72H322.65Z"/><rect class="cls-4" x="319.56" y="627.64" width="88.66" height="108.94"/><path class="cls-2" d="M408.22,739.67H319.56a3.09,3.09,0,0,1-3.08-3.09V627.64a3.09,3.09,0,0,1,3.08-3.09h88.66a3.09,3.09,0,0,1,3.08,3.09V736.58A3.09,3.09,0,0,1,408.22,739.67Zm-85.57-6.17h82.48V630.72H322.65Z"/><rect class="cls-3" x="408.7" y="627.64" width="88.66" height="108.94"/><path class="cls-2" d="M497.36,739.67H408.7a3.1,3.1,0,0,1-3.09-3.09V627.64a3.1,3.1,0,0,1,3.09-3.09h88.66a3.09,3.09,0,0,1,3.08,3.09V736.58A3.09,3.09,0,0,1,497.36,739.67Zm-85.57-6.17h82.48V630.72H411.79Z"/><rect class="cls-4" x="497.84" y="627.64" width="88.66" height="108.94"/><path class="cls-2" d="M586.5,739.67H497.84a3.09,3.09,0,0,1-3.08-3.09V627.64a3.09,3.09,0,0,1,3.08-3.09H586.5a3.09,3.09,0,0,1,3.08,3.09V736.58A3.09,3.09,0,0,1,586.5,739.67Zm-85.57-6.17h82.48V630.72H500.93Z"/><rect class="cls-3" x="586.98" y="627.64" width="88.65" height="108.94"/><path class="cls-2" d="M675.64,739.67H587a3.09,3.09,0,0,1-3.08-3.09V627.64a3.09,3.09,0,0,1,3.08-3.09h88.66a3.09,3.09,0,0,1,3.08,3.09V736.58A3.09,3.09,0,0,1,675.64,739.67Zm-85.57-6.17h82.48V630.72H590.07Z"/><rect class="cls-4" x="676.12" y="627.64" width="88.66" height="108.94"/><path class="cls-2" d="M764.78,739.67H676.12a3.09,3.09,0,0,1-3.08-3.09V627.64a3.09,3.09,0,0,1,3.08-3.09h88.66a3.09,3.09,0,0,1,3.08,3.09V736.58A3.09,3.09,0,0,1,764.78,739.67Zm-85.57-6.17h82.48V630.72H679.21Z"/><rect class="cls-3" x="765.26" y="627.64" width="88.66" height="108.94"/><path class="cls-2" d="M853.92,739.67H765.26a3.09,3.09,0,0,1-3.08-3.09V627.64a3.09,3.09,0,0,1,3.08-3.09h88.66a3.09,3.09,0,0,1,3.08,3.09V736.58A3.09,3.09,0,0,1,853.92,739.67Zm-85.57-6.17h82.48V630.72H768.35Z"/><path class="cls-2" d="M341.59,736.58v16.83A12.58,12.58,0,0,0,354.17,766h11.22A12.58,12.58,0,0,0,378,753.41V736.58Z"/><path class="cls-2" d="M365.39,769.07H354.17a15.67,15.67,0,0,1-15.66-15.66V736.58a3.08,3.08,0,0,1,3.08-3.08H378a3.08,3.08,0,0,1,3.08,3.08v16.83A15.67,15.67,0,0,1,365.39,769.07Zm-20.71-29.4v13.74a9.5,9.5,0,0,0,9.49,9.49h11.22a9.5,9.5,0,0,0,9.49-9.49V739.67Z"/><path class="cls-2" d="M794.81,736.58v16.83A12.58,12.58,0,0,0,807.39,766h11.22a12.58,12.58,0,0,0,12.58-12.58V736.58Z"/><path class="cls-2" d="M818.61,769.07H807.39a15.68,15.68,0,0,1-15.66-15.66V736.58a3.08,3.08,0,0,1,3.08-3.08h36.38a3.08,3.08,0,0,1,3.08,3.08v16.83A15.67,15.67,0,0,1,818.61,769.07Zm-20.71-29.4v13.74a9.5,9.5,0,0,0,9.49,9.49h11.22a9.5,9.5,0,0,0,9.49-9.49V739.67Z"/><path class="cls-5" d="M582.62,536.61v-4.84a17.35,17.35,0,0,0-.67-5,98.58,98.58,0,0,1-1.34,9.8Z"/><path class="cls-2" d="M533.81,264.55a3.07,3.07,0,0,0-2.64-1.49H470.75a3.07,3.07,0,0,0-2.19.92l-84.87,86a3.05,3.05,0,0,0-.77,2.89v36.84a53.32,53.32,0,0,0,103.72,17.37l-.18-20.21V355.2l47.45-87.63A3.07,3.07,0,0,0,533.81,264.55Z"/><path class="cls-3" d="M225.59,581l-31.32,233.7a24.1,24.1,0,0,0,24.1,24.1H420.75a24.1,24.1,0,0,0,24.1-24.1L416.74,581Z"/><path class="cls-2" d="M420.75,842.88H218.37a28.25,28.25,0,0,1-28.22-28.22,5.21,5.21,0,0,1,0-.55l31.32-233.7a4.14,4.14,0,0,1,4.09-3.58H416.74a4.13,4.13,0,0,1,4.1,3.64l28.1,233.7a4,4,0,0,1,0,.49A28.25,28.25,0,0,1,420.75,842.88Zm-222.35-28a20,20,0,0,0,20,19.71H420.75a20,20,0,0,0,20-19.73L413.08,585.08H229.21Z"/><path class="cls-4" d="M283,631.71a11.32,11.32,0,1,1-11.32-11.32A11.32,11.32,0,0,1,283,631.71Z"/><path class="cls-2" d="M271.64,647.16a15.45,15.45,0,1,1,15.45-15.45A15.47,15.47,0,0,1,271.64,647.16Zm0-22.64a7.2,7.2,0,1,0,7.19,7.19A7.21,7.21,0,0,0,271.64,624.52Z"/><path class="cls-4" d="M378.67,631.71a11.32,11.32,0,1,1-11.32-11.32A11.32,11.32,0,0,1,378.67,631.71Z"/><path class="cls-2" d="M367.35,647.16a15.45,15.45,0,1,1,15.45-15.45A15.47,15.47,0,0,1,367.35,647.16Zm0-22.64a7.2,7.2,0,1,0,7.19,7.19A7.2,7.2,0,0,0,367.35,624.52Z"/><path class="cls-2" d="M451.88,813.82,423.77,580.11a7.08,7.08,0,0,0-7-6.24H383.26c-3.57-47.82-30.77-85.13-63.7-85.13s-60.13,37.31-63.7,85.13H225.59a7.11,7.11,0,0,0-7,6.15L187.25,813.71a7.69,7.69,0,0,0-.06.95,31.21,31.21,0,0,0,31.18,31.18H420.75a31.21,31.21,0,0,0,31.18-31.18A5.92,5.92,0,0,0,451.88,813.82ZM319.56,502.91c25.31,0,46.28,31,49.49,71h-99C273.29,533.88,294.25,502.91,319.56,502.91ZM420.75,831.67H218.37a17.07,17.07,0,0,1-17-16.57l30.42-227.05h23.74A139.72,139.72,0,0,0,259.44,618a18.4,18.4,0,1,0,13.46-4.59,125.48,125.48,0,0,1-3.2-25.32h99.72a126.19,126.19,0,0,1-3.2,25.31,18.45,18.45,0,1,0,13.43,4.7,139.39,139.39,0,0,0,3.94-30h26.86l27.3,227A17.06,17.06,0,0,1,420.75,831.67Z"/><path class="cls-2" d="M270.82,634.78a4.12,4.12,0,0,1-3.84-2.63,131.72,131.72,0,0,1-8.57-47.58c0-51.21,27.43-92.87,61.15-92.87s61.15,41.66,61.15,92.87a131.91,131.91,0,0,1-8.4,47.14,4.12,4.12,0,1,1-7.69-3,124,124,0,0,0,7.83-44.17c0-46.66-23.72-84.62-52.89-84.62s-52.89,38-52.89,84.62a123.66,123.66,0,0,0,8,44.58,4.12,4.12,0,0,1-2.34,5.34A4,4,0,0,1,270.82,634.78Z"/><path class="cls-2" d="M786.31,498a136.74,136.74,0,0,0-193.53-5.62l-6,5.65A136.9,136.9,0,0,0,387.58,685.84l13.49,14.3a39.95,39.95,0,0,0,41.78,55.46,39.75,39.75,0,0,0,44.27,46.91,39.74,39.74,0,0,0,44.26,46.9,40.08,40.08,0,0,0,66.9,36.44c45-42.51,43.61-40.39,47.87-47.55a39.85,39.85,0,0,0,57.11-40.86,39.87,39.87,0,0,0,46.89-44.33,40.08,40.08,0,0,0,36-67.31A136.48,136.48,0,0,0,786.31,498Z"/><path class="cls-6" d="M420.21,732.71a24.4,24.4,0,0,1,1-34.45l41-38.73A24.36,24.36,0,0,1,495.67,695l-41,38.75a24.38,24.38,0,0,1-34.43-1Z"/><path class="cls-7" d="M464.48,779.63a24.38,24.38,0,0,1,1-34.45l41-38.74a24.36,24.36,0,0,1,33.43,35.43l-41,38.75a24.39,24.39,0,0,1-34.42-1Z"/><path class="cls-8" d="M508.75,826.54a24.4,24.4,0,0,1,1-34.45l41-38.74a24.36,24.36,0,0,1,33.44,35.38l-41,38.74a24.36,24.36,0,0,1-34.43-1Z"/><path class="cls-9" d="M587.45,874.44A24.36,24.36,0,0,1,554,839l41-38.75a24.36,24.36,0,0,1,33.43,35.44Z"/><path class="cls-10" d="M774.07,731.5a24.3,24.3,0,0,1-34.42-1L634.5,619.1A7.89,7.89,0,1,0,623,629.93l105.17,111.4a24.36,24.36,0,0,1-35.43,33.45L587.6,663.36a7.89,7.89,0,1,0-11.48,10.83L681.25,785.58a24.33,24.33,0,0,1-29.9,37.75,39.83,39.83,0,0,0-38.43-45.54c-8.67-.23-5.52,3.05-5.3-5.63a40.1,40.1,0,0,0-39-41.28c-8.68-.28-5.56,3.15-5.3-5.63a40.13,40.13,0,0,0-39-41.29c-8.73-.25-5.57,3.23-5.31-5.62A40.18,40.18,0,0,0,451.41,648c-56.41,53.25-37,34.9-41.15,38.87L399.07,675A121.11,121.11,0,0,1,575.31,508.86l-64.62,61a32.77,32.77,0,0,0-10.06,22.38c-.79,32.4,47.41,52.81,76.87,24.93l58.89-55.58a7.9,7.9,0,0,1,11.16.32c15.48,16.4,112.67,119.4,127.52,135.12a24.37,24.37,0,0,1-1,34.44Z"/><path class="cls-11" d="M775.42,674.45,659,551.1a23.66,23.66,0,0,0-33.46-1l-58.91,55.59a32.33,32.33,0,0,1-45.81-1.42,16.23,16.23,0,0,1,.7-23l82.06-77.5A121.13,121.13,0,0,1,775.42,674.45Z"/></svg>