<svg id="Layer_1" data-name="Layer 1" xmlns="http://www.w3.org/2000/svg" xmlns:xlink="http://www.w3.org/1999/xlink" viewBox="0 0 1080 1080"><defs><style>.cls-1{fill:none;}.cls-2{clip-path:url(#clip-path);}.cls-3{fill:#eddada;}.cls-4{fill:#ecd9d9;}.cls-5{fill:#ebd8d8;}.cls-6{fill:#ead7d7;}.cls-7{fill:#e9d6d6;}.cls-8{fill:#e8d5d5;}.cls-9{fill:#e7d4d4;}.cls-10{fill:#e6d3d3;}.cls-11{fill:#e5d2d2;}.cls-12{fill:#e4d1d1;}.cls-13{fill:#e5d3d3;}.cls-14{fill:#e6d4d4;}.cls-15{fill:#e6d5d5;}.cls-16{fill:#e7d6d6;}.cls-17{fill:#e8d7d7;}.cls-18{fill:#e8d8d8;}.cls-19{fill:#e9d9d9;}.cls-20{fill:#e9dada;}.cls-21{fill:#eadbdb;}.cls-22{fill:#ebdcdc;}.cls-23{fill:#ebdddd;}.cls-24{fill:#ecdede;}.cls-25{fill:#ecdfdf;}.cls-26{fill:#ede0e0;}.cls-27{fill:#eee1e1;}.cls-28{fill:#eee2e2;}.cls-29{fill:#efe3e3;}.cls-30{fill:#efe4e4;}.cls-31{fill:#f0e5e5;}.cls-32{fill:#f1e6e6;}.cls-33{fill:#f1e7e7;}.cls-34{fill:#f2e9e9;}.cls-35{fill:#f2eaea;}.cls-36{fill:#f3ebeb;}.cls-37{fill:#f4ecec;}.cls-38{fill:#f4eded;}.cls-39{fill:#f5eeee;}.cls-40{fill:#f5efef;}.cls-41{fill:#f6f0f0;}.cls-42{fill:#f7f1f1;}.cls-43{fill:#f7f2f2;}.cls-44{fill:#f8f3f3;}.cls-45{fill:#f8f4f4;}.cls-46{fill:#f9f5f5;}.cls-47{fill:#faf6f6;}.cls-48{clip-path:url(#clip-path-2);}.cls-49{fill:#febcbc;}.cls-50{fill:#febbbb;}.cls-51{fill:#febaba;}.cls-52{fill:#feb9b9;}.cls-53{fill:#feb8b8;}.cls-54{fill:#feb7b7;}.cls-55{fill:#feb6b6;}.cls-56{fill:#feb5b5;}.cls-57{fill:#feb4b4;}.cls-58{fill:#feb3b3;}.cls-59{fill:#feb2b2;}.cls-60{fill:#feb1b1;}.cls-61{fill:#feb0b0;}.cls-62{fill:#feafaf;}.cls-63{fill:#feaeae;}.cls-64{fill:#feadad;}.cls-65{fill:#feacac;}.cls-66{fill:#feabab;}.cls-67{fill:#feaaaa;}.cls-68{fill:#fea9a9;}.cls-69{fill:#fea8a8;}.cls-70{fill:#fea7a7;}.cls-71{fill:#fea5a5;}.cls-72{fill:#fea4a4;}.cls-73{fill:#fea3a3;}.cls-74{fill:#fea2a2;}.cls-75{fill:#fea1a1;}.cls-76{fill:#fea0a0;}.cls-77{fill:#fe9f9f;}.cls-78{fill:#fe9e9e;}.cls-79{fill:#fe9d9d;}.cls-80{fill:#fe9c9c;}.cls-81{fill:#fe9b9b;}.cls-82{fill:#fe9a9a;}.cls-83{fill:#fe9999;}.cls-84{fill:#fe9898;}.cls-85{fill:#fe9797;}.cls-86{fill:#fe9696;}.cls-87{fill:#fe9595;}.cls-88{fill:#fe9494;}.cls-89{fill:#fe9393;}.cls-90{fill:#fe9292;}.cls-91{fill:#fe9191;}.cls-92{fill:#fe9090;}.cls-93{fill:#fe8f8f;}.cls-94{fill:#fe8e8e;}.cls-95{fill:#fe8d8d;}.cls-96{fill:#fe8c8c;}.cls-97{clip-path:url(#clip-path-3);}.cls-98{fill:#fec7c7;}.cls-99{fill:#fec6c6;}.cls-100{fill:#fec5c5;}.cls-101{fill:#fec4c4;}.cls-102{fill:#fec3c3;}.cls-103{fill:#fec2c2;}.cls-104{fill:#fec1c1;}.cls-105{fill:#fec0c0;}.cls-106{fill:#febfbf;}.cls-107{fill:#febebe;}.cls-108{fill:#febdbd;}.cls-109{fill:#fe8b8b;}.cls-110{fill:#fe8a8a;}.cls-111{fill:#fe8989;}.cls-112{fill:#fe8888;}.cls-113{fill:#fe8787;}.cls-114{fill:#fe8686;}.cls-115{clip-path:url(#clip-path-4);}.cls-116{fill:#3a5489;}.cls-117{fill:#cdebf5;}.cls-118{fill:#fff;}.cls-119{fill:#fee9e9;}</style><clipPath id="clip-path"><path class="cls-1" d="M677.4,510.63,728.8,656C773.92,783.59,664,912.18,530.94,887.45l-151.6-28.17L227.73,831.11C94.68,806.39,38.28,646.9,126.22,544l100.2-117.2,100.2-117.21c87.94-102.87,254.26-72,299.37,55.63Z"/></clipPath><clipPath id="clip-path-2"><path class="cls-1" d="M739,651.27,757,641.81l107.85-58.15,13-7a58.88,58.88,0,0,1,78.43,21.44L702,772.63a177.91,177.91,0,0,1-110.7,15.63L444.38,761.19a54.65,54.65,0,0,0-40,5.32L324.84,816.8,269.25,634.47l.47-.15a95.21,95.21,0,0,0,46.11-22.57l24.35-21.67a162.73,162.73,0,0,1,168.64-16.47l10.08,4.87a116.08,116.08,0,0,0,50.6,11.6h97.77A72.73,72.73,0,0,1,739,651.27Zm0,0"/></clipPath><clipPath id="clip-path-3"><path class="cls-1" d="M864.72,583.49l.09.17L757,641.81,739,651.27a72.42,72.42,0,0,0-23.75-43l69.33-37.35,17.63-9.52c21.79-11.05,50.4.9,62.47,22.14Zm0,0"/></clipPath><clipPath id="clip-path-4"><path class="cls-1" d="M783.75,569.26l.87,1.61-69.33,37.35a72.31,72.31,0,0,0-48-18.14H645.59l57.65-31.34a66.6,66.6,0,0,1,80.51,10.52Zm0,0"/></clipPath></defs><title>TJSP</title><g class="cls-2"><polygon class="cls-3" points="38.28 856.72 68.02 912.18 38.28 912.18 38.28 856.72"/><polygon class="cls-4" points="38.28 773.18 112.8 912.18 68.02 912.18 38.28 856.72 38.28 773.18"/><polygon class="cls-5" points="38.28 689.64 157.59 912.18 112.8 912.18 38.28 773.18 38.28 689.64"/><polygon class="cls-6" points="38.28 606.1 202.38 912.18 157.59 912.18 38.28 689.64 38.28 606.1"/><polygon class="cls-7" points="38.28 522.56 247.17 912.18 202.38 912.18 38.28 606.1 38.28 522.56"/><polygon class="cls-8" points="38.28 439.02 291.95 912.18 247.17 912.18 38.28 522.56 38.28 439.02"/><polygon class="cls-9" points="38.28 402.06 57.68 391.66 336.74 912.18 291.95 912.18 38.28 439.02 38.28 402.06"/><polygon class="cls-10" points="57.68 391.66 92.47 373.01 381.53 912.18 336.74 912.18 57.68 391.66"/><polygon class="cls-11" points="92.47 373.01 127.26 354.36 426.32 912.18 381.53 912.18 92.47 373.01"/><polygon class="cls-12" points="127.26 354.36 162.05 335.7 471.11 912.18 426.32 912.18 127.26 354.36"/><polygon class="cls-12" points="162.05 335.7 176.4 328.01 489.59 912.18 471.11 912.18 162.05 335.7"/><polygon class="cls-11" points="176.4 328.01 190.76 320.31 508.07 912.18 489.59 912.18 176.4 328.01"/><polygon class="cls-13" points="190.76 320.31 205.11 312.62 526.55 912.18 508.07 912.18 190.76 320.31"/><polygon class="cls-14" points="205.11 312.62 219.47 304.92 545.03 912.18 526.55 912.18 205.11 312.62"/><polygon class="cls-15" points="219.47 304.92 233.83 297.22 563.52 912.18 545.03 912.18 219.47 304.92"/><polygon class="cls-16" points="233.83 297.22 248.18 289.53 582 912.18 563.52 912.18 233.83 297.22"/><polygon class="cls-17" points="248.18 289.53 262.54 281.83 600.48 912.18 582 912.18 248.18 289.53"/><polygon class="cls-18" points="262.54 281.83 276.89 274.13 618.96 912.18 600.48 912.18 262.54 281.83"/><polygon class="cls-19" points="276.89 274.13 291.25 266.44 637.44 912.18 618.96 912.18 276.89 274.13"/><polygon class="cls-20" points="291.25 266.44 305.61 258.74 655.93 912.18 637.44 912.18 291.25 266.44"/><polygon class="cls-21" points="305.61 258.74 319.96 251.04 674.41 912.18 655.93 912.18 305.61 258.74"/><polygon class="cls-22" points="319.96 251.04 334.32 243.35 689.11 905.13 675.98 912.18 674.41 912.18 319.96 251.04"/><rect class="cls-23" x="510.75" y="194.95" width="16.29" height="750.89" transform="translate(-207.93 312.87) rotate(-28.2)"/><rect class="cls-24" x="525.1" y="187.25" width="16.29" height="750.89" transform="translate(-202.59 318.73) rotate(-28.2)"/><rect class="cls-25" x="539.46" y="179.55" width="16.29" height="750.89" transform="translate(-197.25 324.6) rotate(-28.2)"/><rect class="cls-26" x="553.82" y="171.86" width="16.29" height="750.89" transform="translate(-191.91 330.47) rotate(-28.2)"/><polygon class="cls-27" points="391.74 212.56 402.57 206.75 407.11 206.75 760.89 866.65 746.54 874.35 391.74 212.56"/><polygon class="cls-28" points="425.59 206.75 773.92 856.47 773.92 859.67 760.89 866.65 407.11 206.75 425.59 206.75"/><polygon class="cls-29" points="444.07 206.75 773.92 822 773.92 856.47 425.59 206.75 444.07 206.75"/><polygon class="cls-30" points="462.55 206.75 773.92 787.52 773.92 822 444.07 206.75 462.55 206.75"/><polygon class="cls-31" points="481.04 206.75 773.92 753.05 773.92 787.52 462.55 206.75 481.04 206.75"/><polygon class="cls-32" points="499.52 206.75 773.92 718.58 773.92 753.05 481.04 206.75 499.52 206.75"/><polygon class="cls-33" points="518 206.75 773.92 684.1 773.92 718.58 499.52 206.75 518 206.75"/><polygon class="cls-34" points="536.48 206.75 773.92 649.63 773.92 684.1 518 206.75 536.48 206.75"/><polygon class="cls-35" points="554.96 206.75 773.92 615.15 773.92 649.63 536.48 206.75 554.96 206.75"/><polygon class="cls-36" points="573.45 206.75 773.92 580.68 773.92 615.15 554.96 206.75 573.45 206.75"/><polygon class="cls-37" points="591.93 206.75 773.92 546.21 773.92 580.68 573.45 206.75 591.93 206.75"/><polygon class="cls-38" points="610.41 206.75 773.92 511.73 773.92 546.21 591.93 206.75 610.41 206.75"/><polygon class="cls-39" points="628.89 206.75 773.92 477.26 773.92 511.73 610.41 206.75 628.89 206.75"/><polygon class="cls-40" points="647.37 206.75 773.92 442.79 773.92 477.26 628.89 206.75 647.37 206.75"/><polygon class="cls-41" points="665.86 206.75 773.92 408.31 773.92 442.79 647.37 206.75 665.86 206.75"/><polygon class="cls-42" points="684.34 206.75 773.92 373.84 773.92 408.31 665.86 206.75 684.34 206.75"/><polygon class="cls-43" points="702.82 206.75 773.92 339.37 773.92 373.84 684.34 206.75 702.82 206.75"/><polygon class="cls-44" points="721.3 206.75 773.92 304.89 773.92 339.37 702.82 206.75 721.3 206.75"/><polygon class="cls-45" points="739.78 206.75 773.92 270.42 773.92 304.89 721.3 206.75 739.78 206.75"/><polygon class="cls-46" points="758.27 206.75 773.92 235.94 773.92 270.42 739.78 206.75 758.27 206.75"/><polygon class="cls-47" points="773.92 235.94 758.27 206.75 773.92 206.75 773.92 235.94"/></g><g class="cls-48"><polygon class="cls-49" points="283.83 547.09 269.25 587.18 269.25 547.09 283.83 547.09"/><polygon class="cls-50" points="300.29 547.09 269.25 632.41 269.25 587.18 283.83 547.09 300.29 547.09"/><polygon class="cls-51" points="316.75 547.09 269.25 677.63 269.25 632.41 300.29 547.09 316.75 547.09"/><polygon class="cls-52" points="333.21 547.09 269.25 722.86 269.25 677.63 316.75 547.09 333.21 547.09"/><polygon class="cls-53" points="349.67 547.09 269.25 768.09 269.25 722.86 333.21 547.09 349.67 547.09"/><polygon class="cls-54" points="366.12 547.09 272.69 803.85 269.25 802.6 269.25 768.09 349.67 547.09 366.12 547.09"/><polygon class="cls-55" points="382.58 547.09 287.22 809.14 272.69 803.85 366.12 547.09 382.58 547.09"/><polygon class="cls-56" points="399.04 547.09 301.75 814.43 287.22 809.14 382.58 547.09 399.04 547.09"/><polygon class="cls-57" points="415.5 547.09 317.35 816.8 308.28 816.8 301.75 814.43 399.04 547.09 415.5 547.09"/><polygon class="cls-58" points="431.95 547.09 333.81 816.8 317.35 816.8 415.5 547.09 431.95 547.09"/><polygon class="cls-59" points="448.41 547.09 350.26 816.8 333.81 816.8 431.95 547.09 448.41 547.09"/><polygon class="cls-60" points="464.87 547.09 366.72 816.8 350.26 816.8 448.41 547.09 464.87 547.09"/><polygon class="cls-61" points="481.33 547.09 383.18 816.8 366.72 816.8 464.87 547.09 481.33 547.09"/><polygon class="cls-62" points="497.79 547.09 399.64 816.8 383.18 816.8 481.33 547.09 497.79 547.09"/><polygon class="cls-63" points="514.24 547.09 416.1 816.8 399.64 816.8 497.79 547.09 514.24 547.09"/><polygon class="cls-64" points="530.7 547.09 432.55 816.8 416.1 816.8 514.24 547.09 530.7 547.09"/><polygon class="cls-65" points="547.16 547.09 449.01 816.8 432.55 816.8 530.7 547.09 547.16 547.09"/><polygon class="cls-66" points="563.62 547.09 465.47 816.8 449.01 816.8 547.16 547.09 563.62 547.09"/><polygon class="cls-67" points="580.07 547.09 481.93 816.8 465.47 816.8 563.62 547.09 580.07 547.09"/><polygon class="cls-68" points="596.53 547.09 498.38 816.8 481.93 816.8 580.07 547.09 596.53 547.09"/><polygon class="cls-69" points="612.99 547.09 514.84 816.8 498.38 816.8 596.53 547.09 612.99 547.09"/><polygon class="cls-70" points="629.45 547.09 531.3 816.8 514.84 816.8 612.99 547.09 629.45 547.09"/><polygon class="cls-71" points="645.9 547.09 547.76 816.8 531.3 816.8 629.45 547.09 645.9 547.09"/><polygon class="cls-72" points="662.36 547.09 564.22 816.8 547.76 816.8 645.9 547.09 662.36 547.09"/><polygon class="cls-73" points="678.82 547.09 580.67 816.8 564.22 816.8 662.36 547.09 678.82 547.09"/><polygon class="cls-74" points="695.28 547.09 597.13 816.8 580.67 816.8 678.82 547.09 695.28 547.09"/><polygon class="cls-75" points="711.74 547.09 613.59 816.8 597.13 816.8 695.28 547.09 711.74 547.09"/><polygon class="cls-76" points="728.19 547.09 630.04 816.8 613.59 816.8 711.74 547.09 728.19 547.09"/><polygon class="cls-77" points="744.65 547.09 646.5 816.8 630.04 816.8 728.19 547.09 744.65 547.09"/><polygon class="cls-78" points="761.11 547.09 662.96 816.8 646.5 816.8 744.65 547.09 761.11 547.09"/><polygon class="cls-79" points="777.57 547.09 679.42 816.8 662.96 816.8 761.11 547.09 777.57 547.09"/><polygon class="cls-80" points="794.02 547.09 695.88 816.8 679.42 816.8 777.57 547.09 794.02 547.09"/><polygon class="cls-81" points="810.48 547.09 712.33 816.8 695.88 816.8 794.02 547.09 810.48 547.09"/><polygon class="cls-82" points="826.94 547.09 728.79 816.8 712.33 816.8 810.48 547.09 826.94 547.09"/><polygon class="cls-83" points="843.4 547.09 745.25 816.8 728.79 816.8 826.94 547.09 843.4 547.09"/><polygon class="cls-84" points="859.85 547.09 761.71 816.8 745.25 816.8 843.4 547.09 859.85 547.09"/><polygon class="cls-85" points="876.31 547.09 778.16 816.8 761.71 816.8 859.85 547.09 876.31 547.09"/><polygon class="cls-86" points="890.4 547.09 892.49 547.85 794.62 816.8 778.16 816.8 876.31 547.09 890.4 547.09"/><polygon class="cls-87" points="892.49 547.85 907.02 553.14 811.08 816.8 794.62 816.8 892.49 547.85"/><polygon class="cls-88" points="907.02 553.14 921.56 558.43 827.54 816.8 811.08 816.8 907.02 553.14"/><polygon class="cls-89" points="921.56 558.43 936.09 563.72 844 816.8 827.54 816.8 921.56 558.43"/><polygon class="cls-90" points="936.09 563.72 950.62 569 860.45 816.8 844 816.8 936.09 563.72"/><polygon class="cls-91" points="950.62 569 956.18 571.03 956.18 598.95 876.91 816.8 860.45 816.8 950.62 569"/><polygon class="cls-92" points="956.18 644.17 893.37 816.8 876.91 816.8 956.18 598.95 956.18 644.17"/><polygon class="cls-93" points="956.18 689.4 909.83 816.8 893.37 816.8 956.18 644.17 956.18 689.4"/><polygon class="cls-94" points="956.18 734.63 926.28 816.8 909.83 816.8 956.18 689.4 956.18 734.63"/><polygon class="cls-95" points="956.18 779.86 942.74 816.8 926.28 816.8 956.18 734.63 956.18 779.86"/><polygon class="cls-96" points="942.74 816.8 956.18 779.86 956.18 816.8 942.74 816.8"/></g><g class="cls-97"><rect class="cls-98" x="715.29" y="550.3" width="2.3" height="100.97"/><rect class="cls-99" x="717.59" y="550.3" width="2.3" height="100.97"/><rect class="cls-100" x="719.89" y="550.3" width="2.3" height="100.97"/><rect class="cls-101" x="722.19" y="550.3" width="2.3" height="100.97"/><rect class="cls-102" x="724.49" y="550.3" width="2.3" height="100.97"/><rect class="cls-103" x="726.79" y="550.3" width="2.3" height="100.97"/><rect class="cls-104" x="729.09" y="550.3" width="2.3" height="100.97"/><rect class="cls-105" x="731.39" y="550.3" width="2.3" height="100.97"/><rect class="cls-106" x="733.69" y="550.3" width="2.3" height="100.97"/><rect class="cls-107" x="735.99" y="550.3" width="2.3" height="100.97"/><rect class="cls-108" x="738.29" y="550.3" width="2.3" height="100.97"/><rect class="cls-49" x="740.59" y="550.3" width="2.3" height="100.97"/><rect class="cls-50" x="742.9" y="550.3" width="2.3" height="100.97"/><rect class="cls-51" x="745.2" y="550.3" width="2.3" height="100.97"/><rect class="cls-52" x="747.5" y="550.3" width="2.3" height="100.97"/><rect class="cls-53" x="749.8" y="550.3" width="2.3" height="100.97"/><rect class="cls-54" x="752.1" y="550.3" width="2.3" height="100.97"/><rect class="cls-55" x="754.4" y="550.3" width="2.3" height="100.97"/><rect class="cls-56" x="756.7" y="550.3" width="2.3" height="100.97"/><rect class="cls-57" x="759" y="550.3" width="2.3" height="100.97"/><rect class="cls-58" x="761.3" y="550.3" width="2.3" height="100.97"/><rect class="cls-59" x="763.6" y="550.3" width="2.3" height="100.97"/><rect class="cls-60" x="765.9" y="550.3" width="2.3" height="100.97"/><rect class="cls-61" x="768.2" y="550.3" width="2.3" height="100.97"/><rect class="cls-62" x="770.5" y="550.3" width="2.3" height="100.97"/><rect class="cls-63" x="772.8" y="550.3" width="2.3" height="100.97"/><rect class="cls-64" x="775.1" y="550.3" width="2.3" height="100.97"/><rect class="cls-65" x="777.4" y="550.3" width="2.3" height="100.97"/><rect class="cls-66" x="779.7" y="550.3" width="2.3" height="100.97"/><rect class="cls-67" x="782" y="550.3" width="2.3" height="100.97"/><rect class="cls-68" x="784.3" y="550.3" width="2.3" height="100.97"/><rect class="cls-69" x="786.6" y="550.3" width="2.3" height="100.97"/><rect class="cls-70" x="788.9" y="550.3" width="2.3" height="100.97"/><rect class="cls-71" x="791.2" y="550.3" width="2.3" height="100.97"/><rect class="cls-72" x="793.5" y="550.3" width="2.3" height="100.97"/><rect class="cls-73" x="795.8" y="550.3" width="2.3" height="100.97"/><rect class="cls-74" x="798.1" y="550.3" width="2.3" height="100.97"/><rect class="cls-75" x="800.4" y="550.3" width="2.3" height="100.97"/><rect class="cls-76" x="802.7" y="550.3" width="2.3" height="100.97"/><rect class="cls-77" x="805" y="550.3" width="2.3" height="100.97"/><rect class="cls-78" x="807.3" y="550.3" width="2.3" height="100.97"/><rect class="cls-79" x="809.61" y="550.3" width="2.3" height="100.97"/><rect class="cls-80" x="811.91" y="550.3" width="2.3" height="100.97"/><rect class="cls-81" x="814.21" y="550.3" width="2.3" height="100.97"/><rect class="cls-82" x="816.51" y="550.3" width="2.3" height="100.97"/><rect class="cls-83" x="818.81" y="550.3" width="2.3" height="100.97"/><rect class="cls-84" x="821.11" y="550.3" width="2.3" height="100.97"/><rect class="cls-85" x="823.41" y="550.3" width="2.3" height="100.97"/><rect class="cls-86" x="825.71" y="550.3" width="2.3" height="100.97"/><rect class="cls-87" x="828.01" y="550.3" width="2.3" height="100.97"/><rect class="cls-88" x="830.31" y="550.3" width="2.3" height="100.97"/><rect class="cls-89" x="832.61" y="550.3" width="2.3" height="100.97"/><rect class="cls-90" x="834.91" y="550.3" width="2.3" height="100.97"/><rect class="cls-91" x="837.21" y="550.3" width="2.3" height="100.97"/><rect class="cls-92" x="839.51" y="550.3" width="2.3" height="100.97"/><rect class="cls-93" x="841.81" y="550.3" width="2.3" height="100.97"/><rect class="cls-94" x="844.11" y="550.3" width="2.3" height="100.97"/><rect class="cls-95" x="846.41" y="550.3" width="2.3" height="100.97"/><rect class="cls-96" x="848.71" y="550.3" width="2.3" height="100.97"/><rect class="cls-109" x="851.01" y="550.3" width="2.3" height="100.97"/><rect class="cls-110" x="853.31" y="550.3" width="2.3" height="100.97"/><rect class="cls-111" x="855.61" y="550.3" width="2.3" height="100.97"/><rect class="cls-112" x="857.91" y="550.3" width="2.3" height="100.97"/><rect class="cls-113" x="860.21" y="550.3" width="2.3" height="100.97"/><rect class="cls-114" x="862.51" y="550.3" width="2.3" height="100.97"/></g><g class="cls-115"><rect class="cls-98" x="645.59" y="543.59" width="2.14" height="64.63"/><rect class="cls-99" x="647.73" y="543.59" width="2.14" height="64.63"/><rect class="cls-100" x="649.86" y="543.59" width="2.14" height="64.63"/><rect class="cls-101" x="652" y="543.59" width="2.14" height="64.63"/><rect class="cls-102" x="654.14" y="543.59" width="2.14" height="64.63"/><rect class="cls-103" x="656.28" y="543.59" width="2.14" height="64.63"/><rect class="cls-104" x="658.42" y="543.59" width="2.14" height="64.63"/><rect class="cls-105" x="660.56" y="543.59" width="2.14" height="64.63"/><rect class="cls-106" x="662.7" y="543.59" width="2.14" height="64.63"/><rect class="cls-107" x="664.84" y="543.59" width="2.14" height="64.63"/><rect class="cls-108" x="666.98" y="543.59" width="2.14" height="64.63"/><rect class="cls-49" x="669.11" y="543.59" width="2.14" height="64.63"/><rect class="cls-50" x="671.25" y="543.59" width="2.14" height="64.63"/><rect class="cls-51" x="673.39" y="543.59" width="2.14" height="64.63"/><rect class="cls-52" x="675.53" y="543.59" width="2.14" height="64.63"/><rect class="cls-53" x="677.67" y="543.59" width="2.14" height="64.63"/><rect class="cls-54" x="679.81" y="543.59" width="2.14" height="64.63"/><rect class="cls-55" x="681.95" y="543.59" width="2.14" height="64.63"/><rect class="cls-56" x="684.09" y="543.59" width="2.14" height="64.63"/><rect class="cls-57" x="686.23" y="543.59" width="2.14" height="64.63"/><rect class="cls-58" x="688.36" y="543.59" width="2.14" height="64.63"/><rect class="cls-59" x="690.5" y="543.59" width="2.14" height="64.63"/><rect class="cls-60" x="692.64" y="543.59" width="2.14" height="64.63"/><rect class="cls-61" x="694.78" y="543.59" width="2.14" height="64.63"/><rect class="cls-62" x="696.92" y="543.59" width="2.14" height="64.63"/><rect class="cls-63" x="699.06" y="543.59" width="2.14" height="64.63"/><rect class="cls-64" x="701.2" y="543.59" width="2.14" height="64.63"/><rect class="cls-65" x="703.34" y="543.59" width="2.14" height="64.63"/><rect class="cls-66" x="705.48" y="543.59" width="2.14" height="64.63"/><rect class="cls-67" x="707.61" y="543.59" width="2.14" height="64.63"/><rect class="cls-68" x="709.75" y="543.59" width="2.14" height="64.63"/><rect class="cls-69" x="711.89" y="543.59" width="2.14" height="64.63"/><rect class="cls-70" x="714.03" y="543.59" width="2.14" height="64.63"/><rect class="cls-71" x="716.17" y="543.59" width="2.14" height="64.63"/><rect class="cls-72" x="718.31" y="543.59" width="2.14" height="64.63"/><rect class="cls-73" x="720.45" y="543.59" width="2.14" height="64.63"/><rect class="cls-74" x="722.59" y="543.59" width="2.14" height="64.63"/><rect class="cls-75" x="724.73" y="543.59" width="2.14" height="64.63"/><rect class="cls-76" x="726.87" y="543.59" width="2.14" height="64.63"/><rect class="cls-77" x="729" y="543.59" width="2.14" height="64.63"/><rect class="cls-78" x="731.14" y="543.59" width="2.14" height="64.63"/><rect class="cls-79" x="733.28" y="543.59" width="2.14" height="64.63"/><rect class="cls-80" x="735.42" y="543.59" width="2.14" height="64.63"/><rect class="cls-81" x="737.56" y="543.59" width="2.14" height="64.63"/><rect class="cls-82" x="739.7" y="543.59" width="2.14" height="64.63"/><rect class="cls-83" x="741.84" y="543.59" width="2.14" height="64.63"/><rect class="cls-84" x="743.98" y="543.59" width="2.14" height="64.63"/><rect class="cls-85" x="746.12" y="543.59" width="2.14" height="64.63"/><rect class="cls-86" x="748.25" y="543.59" width="2.14" height="64.63"/><rect class="cls-87" x="750.39" y="543.59" width="2.14" height="64.63"/><rect class="cls-88" x="752.53" y="543.59" width="2.14" height="64.63"/><rect class="cls-89" x="754.67" y="543.59" width="2.14" height="64.63"/><rect class="cls-90" x="756.81" y="543.59" width="2.14" height="64.63"/><rect class="cls-91" x="758.95" y="543.59" width="2.14" height="64.63"/><rect class="cls-92" x="761.09" y="543.59" width="2.14" height="64.63"/><rect class="cls-93" x="763.23" y="543.59" width="2.14" height="64.63"/><rect class="cls-94" x="765.37" y="543.59" width="2.14" height="64.63"/><rect class="cls-95" x="767.5" y="543.59" width="2.14" height="64.63"/><rect class="cls-96" x="769.64" y="543.59" width="2.14" height="64.63"/><rect class="cls-109" x="771.78" y="543.59" width="2.14" height="64.63"/><rect class="cls-110" x="773.92" y="543.59" width="2.14" height="64.63"/><rect class="cls-111" x="776.06" y="543.59" width="2.14" height="64.63"/><rect class="cls-112" x="778.2" y="543.59" width="2.14" height="64.63"/><rect class="cls-113" x="780.34" y="543.59" width="2.14" height="64.63"/><rect class="cls-114" x="782.48" y="543.59" width="2.14" height="64.63"/></g><path class="cls-116" d="M874.2,417.62v71.13H679.66V407.49a80.9,80.9,0,0,0-13.74-45.21,70.85,70.85,0,0,1,42.89-15.76,61.25,61.25,0,0,0,96.62,2.38,14.38,14.38,0,0,1,2-2.26,71.13,71.13,0,0,1,66.76,71Zm0,0"/><path class="cls-117" d="M665.92,362.28a80.9,80.9,0,0,1,13.74,45.21V524.86H411.49V407.49a81.24,81.24,0,0,1,79.21-81.24A70,70,0,0,0,601.1,329a19.39,19.39,0,0,1,2.28-2.59,81.27,81.27,0,0,1,62.54,35.9Zm0,0"/><path class="cls-116" d="M422.12,360.11l2.85,2.54a81,81,0,0,0-13.48,44.84v81.26H216.65V417.62A71.14,71.14,0,0,1,286,346.52a61.27,61.27,0,0,0,96.64,2.38,15.33,15.33,0,0,1,2-2.26,70.6,70.6,0,0,1,37.5,13.47Zm0,0"/><circle class="cls-116" cx="333.77" cy="272.02" r="60.28"/><circle class="cls-116" cx="757.54" cy="277.5" r="60.28"/><circle class="cls-117" cx="545.65" cy="245.27" r="66.19"/><path class="cls-116" d="M724.42,605.62A80.32,80.32,0,0,0,667.27,582H569.49a109.26,109.26,0,0,1-47-10.79l-10.08-4.88A170.18,170.18,0,0,0,335.3,583.57c-.15.12-.31.24-.52.44l-24.36,21.66a87,87,0,0,1-42.21,20.66,8.12,8.12,0,0,0,1.37,16.13,8.39,8.39,0,0,0,1.62-.16,103.37,103.37,0,0,0,50-24.48l24.19-21.52a154,154,0,0,1,159.86-15.39l10.08,4.88A125.8,125.8,0,0,0,569.5,598.2h97.77a64.66,64.66,0,0,1,63.42,52.53l.67,3.52-74.43-3.38c-6.27-.28-12.63-.42-18.91-.42a423.6,423.6,0,0,0-57.71,4,8.13,8.13,0,1,0,2.26,16.11A405.52,405.52,0,0,1,638,666.7c6,0,12.18.14,18.23.41l83.41,3.79H740a8.14,8.14,0,0,0,8.13-8.13A80.31,80.31,0,0,0,724.42,605.62Z"/><path class="cls-116" d="M324.84,816.8l25.65,84.12H173.89L134.67,579.16H252.39l16.86,55.31Zm-48.37,27.82a23.54,23.54,0,1,0-23.53,23.55,23.53,23.53,0,0,0,23.53-23.55Zm0,0"/><path class="cls-118" d="M276.47,844.62a23.54,23.54,0,1,1-23.53-23.54,23.53,23.53,0,0,1,23.53,23.54Zm0,0"/><path class="cls-119" d="M995.84,501.43c3.16-23.62-20.9-70.84-57.8-75.81a67.43,67.43,0,0,0-70.65,39.48,67.45,67.45,0,0,0-57.66-56.8c-36.9-5-72.61,34.18-75.82,57.8-7.93,58.38,66.86,132.71,100,170.09,5.72,6.45,13.12,7.39,20.39,2.75C896.36,612.1,988.18,558.57,995.84,501.43Z"/></svg>