<svg id="Layer_1" data-name="Layer 1" xmlns="http://www.w3.org/2000/svg" xmlns:xlink="http://www.w3.org/1999/xlink" viewBox="0 0 1080 1080"><defs><style>.cls-1{fill:none;}.cls-2{fill:url(#linear-gradient);}.cls-3{fill:#3a5489;}.cls-4{fill:#cdebf5;}.cls-5{clip-path:url(#clip-path);}.cls-6{fill:#feaeae;}.cls-7{fill:#feadad;}.cls-8{fill:#feacac;}.cls-9{fill:#feabab;}.cls-10{fill:#feaaaa;}.cls-11{fill:#fea9a9;}.cls-12{fill:#fea8a8;}.cls-13{fill:#fea7a7;}.cls-14{fill:#fea5a5;}.cls-15{fill:#fea4a4;}.cls-16{fill:#fea3a3;}.cls-17{fill:#fea2a2;}.cls-18{fill:#fea1a1;}.cls-19{fill:#fea0a0;}.cls-20{fill:#fe9f9f;}.cls-21{fill:#fe9e9e;}.cls-22{fill:#fe9d9d;}.cls-23{fill:#fe9c9c;}.cls-24{fill:#fe9b9b;}.cls-25{fill:#fe9a9a;}.cls-26{fill:#fe9999;}.cls-27{fill:#feb6b6;}.cls-28{fill:#feb5b5;}.cls-29{fill:#feb4b4;}.cls-30{fill:#feb3b3;}.cls-31{fill:#feb2b2;}.cls-32{fill:#feb1b1;}.cls-33{fill:#feb0b0;}.cls-34{fill:#feafaf;}.cls-35{fill:#fec7c7;}.cls-36{fill:#fec6c6;}.cls-37{fill:#fec5c5;}.cls-38{fill:#fec4c4;}.cls-39{fill:#fec3c3;}.cls-40{fill:#fec2c2;}.cls-41{fill:#fec1c1;}.cls-42{fill:#fec0c0;}.cls-43{fill:#febfbf;}.cls-44{fill:#febebe;}.cls-45{fill:#febdbd;}.cls-46{fill:#febcbc;}.cls-47{fill:#febbbb;}.cls-48{fill:#febaba;}.cls-49{fill:#feb9b9;}.cls-50{fill:#feb8b8;}.cls-51{fill:#feb7b7;}.cls-52{fill:#fe9898;}.cls-53{fill:#fe9797;}.cls-54{fill:#fe9696;}.cls-55{fill:#fe9595;}.cls-56{fill:#fe9494;}.cls-57{fill:#fe9393;}.cls-58{fill:#fe9292;}.cls-59{fill:#fe9191;}.cls-60{fill:#fe9090;}.cls-61{fill:#fe8f8f;}.cls-62{fill:#fe8e8e;}.cls-63{fill:#fe8d8d;}.cls-64{fill:#fe8c8c;}.cls-65{fill:#fe8b8b;}.cls-66{fill:#fe8a8a;}.cls-67{fill:#fe8989;}.cls-68{fill:#fe8888;}.cls-69{fill:#fe8787;}.cls-70{fill:#fe8686;}.cls-71{fill:#fee9e9;}</style><linearGradient id="linear-gradient" x1="-438.66" y1="1132.79" x2="1138.21" y2="287.4" gradientUnits="userSpaceOnUse"><stop offset="0" stop-color="#fee9e9"/><stop offset="0.57" stop-color="#e4d1d1" stop-opacity="0.7"/><stop offset="0.99" stop-color="#fff" stop-opacity="0.2"/></linearGradient><clipPath id="clip-path"><path class="cls-1" d="M657.27,357a25.58,25.58,0,0,1-4.74,3,6.26,6.26,0,0,1-8.8-4.35,6.34,6.34,0,0,1,3.41-7.09,13.35,13.35,0,1,0-13.59-22.83,6.33,6.33,0,1,1-7.6-10.13,25.55,25.55,0,0,1,8.2-4.09,41.12,41.12,0,0,0-37.53-31.72c0,.48.15.95.15,1.44a6.34,6.34,0,0,1-12.68,0,13.33,13.33,0,1,0-26.66,0,6.34,6.34,0,0,1-12.67,0,25.84,25.84,0,0,1,1.49-8.31,30.62,30.62,0,0,0-16.78-5.07,31.28,31.28,0,0,0-26.73,15.25,30.92,30.92,0,0,0-3.29,7.93,6.34,6.34,0,0,1-12.27-3.16c.38-1.35.82-2.67,1.33-4a17.74,17.74,0,0,0-2.31-.25,19.26,19.26,0,0,0-18.79,15.25,25.64,25.64,0,0,1,18,10.14,6.34,6.34,0,1,1-10.18,7.55,13.15,13.15,0,0,0-10.64-5.38A13.39,13.39,0,0,0,457.73,336v0a6.34,6.34,0,0,1-6.54,10.86,25.16,25.16,0,0,1-4.72-3.76,38.72,38.72,0,0,0,43.81,53,39.51,39.51,0,0,1-.57-6.33A22.05,22.05,0,0,1,470,367.94a6.4,6.4,0,0,1,6.34-6.41,6.27,6.27,0,0,1,6.34,6.25v.16a9.49,9.49,0,0,0,9,9.34,39.44,39.44,0,0,1,3.63-8.16,6.35,6.35,0,0,1,10.9,6.53A27.13,27.13,0,0,0,550,407.38a6.34,6.34,0,0,1,7.1-1.76,47,47,0,0,0,21,3.16,47.74,47.74,0,0,0,10.93-2,6.34,6.34,0,1,1,3.73,12.11,60.59,60.59,0,0,1-9.72,2c2.25,4.46,7.53,8.56,21.23,13.15a40.4,40.4,0,0,1,18.54,12.32,7.17,7.17,0,0,0,8.18,2.2,6.82,6.82,0,0,0,4.16-6.28,6.47,6.47,0,0,0-.33-2.05,56.74,56.74,0,0,0-4.72-10.88,52.56,52.56,0,0,1-11.25,3.28,6.63,6.63,0,0,1-1,.08,6.34,6.34,0,0,1-1-12.59,40.45,40.45,0,0,0,26.1-16,39.07,39.07,0,0,1-29.27-2.71,37.25,37.25,0,0,1-7.43-5.07,21.7,21.7,0,0,1-8,1.57,22,22,0,0,1-19.75-12.22,6.34,6.34,0,0,1,11.34-5.67,9.57,9.57,0,0,0,13.76,3.51,9.45,9.45,0,0,0,3.06-11.95,6.34,6.34,0,1,1,11.32-5.7,21.61,21.61,0,0,1-1.67,22.31,24.22,24.22,0,0,0,3.07,1.91,27.36,27.36,0,0,0,32.31-5.93l.15-.16A27.07,27.07,0,0,0,657.27,357ZM514.34,335a6.34,6.34,0,0,1-12.67,0,29.18,29.18,0,0,1,29.15-29.15,6.34,6.34,0,1,1,0,12.67A16.49,16.49,0,0,0,514.34,335Zm81,3.76a38.24,38.24,0,0,1-31.28,30.41,31.43,31.43,0,0,1-29.53,20.32,6.34,6.34,0,0,1,0-12.67,18.89,18.89,0,0,0,15.43-8,38.19,38.19,0,0,1-20.31-11.7,6.34,6.34,0,0,1,9.4-8.5,25.86,25.86,0,0,0,33.35,3.8,25.23,25.23,0,0,0,10.49-16.09,6.34,6.34,0,1,1,12.45,2.39Z"/></clipPath></defs><title>TJSP</title><path class="cls-2" d="M805.9,495.85l51.41,145.37C902.42,768.81,792.5,897.4,659.45,872.67L507.84,844.5l-151.6-28.17c-133-24.72-189.45-184.21-101.51-287.08l100.2-117.2,100.2-117.21c87.94-102.87,254.25-72,299.37,55.63Z"/><path class="cls-3" d="M710.42,400.59A12.67,12.67,0,0,0,698,390.3H685.75l-.9-5.39a12.76,12.76,0,0,0-10.59-10.5c-1.2-.19-2.42-.31-3.62-.48a38.61,38.61,0,0,0-4.82-28.25A25.93,25.93,0,0,0,647,311a53.93,53.93,0,0,0-52.68-44c-.63,0-1.2.09-1.8.11a25.77,25.77,0,0,0-39.43-4.91,43.53,43.53,0,0,0-23.66-7,44,44,0,0,0-34.59,17,31.56,31.56,0,0,0-40.34,28.36,26.07,26.07,0,0,0-16,24,25.78,25.78,0,0,0,.63,5.4,51,51,0,0,0-6.08,43.73c-1.7.23-3.43.44-5.07.68a12.77,12.77,0,0,0-10.67,10.5l-.9,5.41H404.21a12.67,12.67,0,0,0-12.43,10.26L364,543a19,19,0,0,0,18.7,22.63H514.88c5.25,8.66,21.19,12.68,36.22,12.68,14.87,0,30.66-3.92,36.06-12.68H719.47A19,19,0,0,0,738.17,543Z"/><path class="cls-4" d="M429.84,386.94c2.93-.43,5.94-.81,8.94-1.2a51.18,51.18,0,0,0,55.57,22.55,39.69,39.69,0,0,0,62.18,10.53,60.69,60.69,0,0,0,13.22,2.4c3.07,11.61,11.91,18.64,30.5,24.87a28,28,0,0,1,12.9,8.5,20.19,20.19,0,0,0,15.31,7.19,19.09,19.09,0,0,0,7.52-1.54,19.49,19.49,0,0,0,11.84-17.93,18.79,18.79,0,0,0-1-6,69.53,69.53,0,0,0-5.6-12.89,53.49,53.49,0,0,0,21.06-32.21A38.2,38.2,0,0,0,666,386.1c2.13.28,4.25.52,6.39.88l22.87,137.59a217.54,217.54,0,0,0-137.79,0V445.24a6.34,6.34,0,0,0-12.67,0v79.35A217.58,217.58,0,0,0,407,524.54Z"/><path class="cls-4" d="M377.79,550.64a6.33,6.33,0,0,1-1.33-5.2L404.21,403h10.14L394.47,522.49a12.71,12.71,0,0,0,16.35,14.15A212,212,0,0,1,515.49,530l-1.89,23H382.73a6.4,6.4,0,0,1-4.94-2.33Z"/><path class="cls-4" d="M551.1,565.64c-15.27,0-24-4.51-25.31-6.52L528,532.83a134.53,134.53,0,0,1,20.39,6.84,6.5,6.5,0,0,0,2.74.63,6.32,6.32,0,0,0,2.74-.63,134.36,134.36,0,0,1,20.39-6.89l2.18,26.34c-1.29,2-10,6.52-25.31,6.52Z"/><path class="cls-4" d="M724.4,550.64a6.36,6.36,0,0,1-4.93,2.33H588.62l-1.9-23a212,212,0,0,1,104.71,6.69,12.7,12.7,0,0,0,16.29-14.18L687.86,403H698l27.75,142.45a6.28,6.28,0,0,1-1.35,5.2Z"/><rect class="cls-1" x="362.98" y="204.25" width="376.24" height="374.26"/><g class="cls-5"><rect class="cls-6" x="527.31" y="330.7" width="2.24" height="58.83"/><rect class="cls-7" x="529.54" y="330.7" width="3.31" height="58.83"/><rect class="cls-8" x="532.86" y="330.7" width="3.31" height="58.83"/><rect class="cls-9" x="536.17" y="330.7" width="3.31" height="58.83"/><rect class="cls-10" x="539.49" y="330.7" width="3.31" height="58.83"/><rect class="cls-11" x="542.8" y="330.7" width="3.31" height="58.83"/><rect class="cls-12" x="546.11" y="330.7" width="3.31" height="58.83"/><rect class="cls-13" x="549.43" y="330.7" width="3.31" height="58.83"/><rect class="cls-14" x="552.74" y="330.7" width="3.31" height="58.83"/><rect class="cls-15" x="556.06" y="330.7" width="3.31" height="58.83"/><rect class="cls-16" x="559.37" y="330.7" width="3.31" height="58.83"/><rect class="cls-17" x="562.69" y="330.7" width="3.31" height="58.83"/><rect class="cls-18" x="566" y="330.7" width="3.31" height="58.83"/><rect class="cls-19" x="569.31" y="330.7" width="3.31" height="58.83"/><rect class="cls-20" x="572.63" y="330.7" width="3.31" height="58.83"/><rect class="cls-21" x="575.94" y="330.7" width="3.31" height="58.83"/><rect class="cls-22" x="579.26" y="330.7" width="3.31" height="58.83"/><rect class="cls-23" x="582.57" y="330.7" width="3.31" height="58.83"/><rect class="cls-24" x="585.89" y="330.7" width="3.31" height="58.83"/><rect class="cls-25" x="589.2" y="330.7" width="3.31" height="58.83"/><rect class="cls-26" x="592.51" y="330.7" width="3.3" height="58.83"/><rect class="cls-27" x="501.67" y="305.84" width="1.36" height="35.48"/><rect class="cls-28" x="503.03" y="305.84" width="3.31" height="35.48"/><rect class="cls-29" x="506.34" y="305.84" width="3.31" height="35.48"/><rect class="cls-30" x="509.66" y="305.84" width="3.31" height="35.48"/><rect class="cls-31" x="512.97" y="305.84" width="3.31" height="35.48"/><rect class="cls-32" x="516.29" y="305.84" width="3.31" height="35.48"/><rect class="cls-33" x="519.6" y="305.84" width="3.31" height="35.48"/><rect class="cls-34" x="522.91" y="305.84" width="3.31" height="35.48"/><rect class="cls-6" x="526.23" y="305.84" width="3.31" height="35.48"/><rect class="cls-7" x="529.54" y="305.84" width="3.31" height="35.48"/><rect class="cls-8" x="532.86" y="305.84" width="3.31" height="35.48"/><rect class="cls-9" x="536.17" y="305.84" width="0.99" height="35.48"/><rect class="cls-35" x="440.8" y="267.82" width="2.57" height="181.9"/><rect class="cls-35" x="443.37" y="267.82" width="3.31" height="181.9"/><rect class="cls-36" x="446.69" y="267.82" width="3.31" height="181.9"/><rect class="cls-37" x="450" y="267.82" width="3.31" height="181.9"/><rect class="cls-38" x="453.31" y="267.82" width="3.31" height="181.9"/><rect class="cls-39" x="456.63" y="267.82" width="3.31" height="181.9"/><rect class="cls-40" x="459.94" y="267.82" width="3.31" height="181.9"/><rect class="cls-41" x="463.26" y="267.82" width="3.31" height="181.9"/><rect class="cls-42" x="466.57" y="267.82" width="3.31" height="181.9"/><rect class="cls-43" x="469.89" y="267.82" width="3.31" height="181.9"/><rect class="cls-44" x="473.2" y="267.82" width="3.31" height="181.9"/><rect class="cls-45" x="476.51" y="267.82" width="3.31" height="181.9"/><rect class="cls-46" x="479.83" y="267.82" width="3.31" height="181.9"/><rect class="cls-47" x="483.14" y="267.82" width="3.31" height="181.9"/><rect class="cls-48" x="486.46" y="267.82" width="3.31" height="181.9"/><rect class="cls-49" x="489.77" y="267.82" width="3.31" height="181.9"/><rect class="cls-50" x="493.09" y="267.82" width="3.31" height="181.9"/><rect class="cls-51" x="496.4" y="267.82" width="3.31" height="181.9"/><rect class="cls-27" x="499.71" y="267.82" width="3.31" height="181.9"/><rect class="cls-28" x="503.03" y="267.82" width="3.31" height="181.9"/><rect class="cls-29" x="506.34" y="267.82" width="3.31" height="181.9"/><rect class="cls-30" x="509.66" y="267.82" width="3.31" height="181.9"/><rect class="cls-31" x="512.97" y="267.82" width="3.31" height="181.9"/><rect class="cls-32" x="516.29" y="267.82" width="3.31" height="181.9"/><rect class="cls-33" x="519.6" y="267.82" width="3.31" height="181.9"/><rect class="cls-34" x="522.91" y="267.82" width="3.31" height="181.9"/><rect class="cls-6" x="526.23" y="267.82" width="3.31" height="181.9"/><rect class="cls-7" x="529.54" y="267.82" width="3.31" height="181.9"/><rect class="cls-8" x="532.86" y="267.82" width="3.31" height="181.9"/><rect class="cls-9" x="536.17" y="267.82" width="3.31" height="181.9"/><rect class="cls-10" x="539.49" y="267.82" width="3.31" height="181.9"/><rect class="cls-11" x="542.8" y="267.82" width="3.31" height="181.9"/><rect class="cls-12" x="546.11" y="267.82" width="3.31" height="181.9"/><rect class="cls-13" x="549.43" y="267.82" width="3.31" height="181.9"/><rect class="cls-14" x="552.74" y="267.82" width="3.31" height="181.9"/><rect class="cls-15" x="556.06" y="267.82" width="3.31" height="181.9"/><rect class="cls-16" x="559.37" y="267.82" width="3.31" height="181.9"/><rect class="cls-17" x="562.69" y="267.82" width="3.31" height="181.9"/><rect class="cls-18" x="566" y="267.82" width="3.31" height="181.9"/><rect class="cls-19" x="569.31" y="267.82" width="3.31" height="181.9"/><rect class="cls-20" x="572.63" y="267.82" width="3.31" height="181.9"/><rect class="cls-21" x="575.94" y="267.82" width="3.31" height="181.9"/><rect class="cls-22" x="579.26" y="267.82" width="3.31" height="181.9"/><rect class="cls-23" x="582.57" y="267.82" width="3.31" height="181.9"/><rect class="cls-24" x="585.89" y="267.82" width="3.31" height="181.9"/><rect class="cls-25" x="589.2" y="267.82" width="3.31" height="181.9"/><rect class="cls-26" x="592.51" y="267.82" width="3.31" height="181.9"/><rect class="cls-52" x="595.83" y="267.82" width="3.31" height="181.9"/><rect class="cls-53" x="599.14" y="267.82" width="3.31" height="181.9"/><rect class="cls-54" x="602.46" y="267.82" width="3.31" height="181.9"/><rect class="cls-55" x="605.77" y="267.82" width="3.31" height="181.9"/><rect class="cls-56" x="609.09" y="267.82" width="3.31" height="181.9"/><rect class="cls-57" x="612.4" y="267.82" width="3.31" height="181.9"/><rect class="cls-58" x="615.71" y="267.82" width="3.31" height="181.9"/><rect class="cls-59" x="619.03" y="267.82" width="3.31" height="181.9"/><rect class="cls-60" x="622.34" y="267.82" width="3.31" height="181.9"/><rect class="cls-61" x="625.66" y="267.82" width="3.31" height="181.9"/><rect class="cls-62" x="628.97" y="267.82" width="3.31" height="181.9"/><rect class="cls-63" x="632.29" y="267.82" width="3.31" height="181.9"/><rect class="cls-64" x="635.6" y="267.82" width="3.31" height="181.9"/><rect class="cls-65" x="638.91" y="267.82" width="3.31" height="181.9"/><rect class="cls-66" x="642.23" y="267.82" width="3.31" height="181.9"/><rect class="cls-67" x="645.54" y="267.82" width="3.31" height="181.9"/><rect class="cls-68" x="648.86" y="267.82" width="3.31" height="181.9"/><rect class="cls-69" x="652.17" y="267.82" width="3.31" height="181.9"/><rect class="cls-70" x="655.49" y="267.82" width="3.31" height="181.9"/><rect class="cls-70" x="658.8" y="267.82" width="1.74" height="181.9"/></g><path class="cls-3" d="M557.43,217.12v-6.33a6.34,6.34,0,1,0-12.67,0v6.33a6.34,6.34,0,1,0,12.67,0Zm0,0"/><path class="cls-3" d="M655.08,249.92l-6.33,6.34a6.34,6.34,0,1,0,9,9l6.34-6.34a6.34,6.34,0,1,0-9-9Zm0,0"/><path class="cls-3" d="M449,267.08a6.34,6.34,0,0,0,4.48-10.82l-6.34-6.34a6.34,6.34,0,1,0-9,9l6.34,6.34a6.38,6.38,0,0,0,4.48,1.86Zm0,0"/><path class="cls-3" d="M497.75,240.41a6.54,6.54,0,0,0,2.43-.48,6.32,6.32,0,0,0,3.42-8.28l-7.27-17.57a6.34,6.34,0,1,0-11.71,4.86l7.27,17.56a6.35,6.35,0,0,0,5.86,3.91Zm0,0"/><path class="cls-3" d="M614.15,210.65a6.34,6.34,0,0,0-8.28,3.43l-7.28,17.57a6.34,6.34,0,0,0,3.43,8.28,6.51,6.51,0,0,0,2.43.49,6.35,6.35,0,0,0,5.86-3.91l7.27-17.57a6.35,6.35,0,0,0-3.43-8.29Zm0,0"/><path class="cls-3" d="M679.89,315.86a6.32,6.32,0,0,0,2.43-.49l17.56-7.27A6.34,6.34,0,0,0,695,296.39l-17.56,7.28a6.33,6.33,0,0,0,2.42,12.19Zm0,0"/><path class="cls-3" d="M419.88,315.37a6.33,6.33,0,1,0,4.85-11.7l-17.57-7.28a6.34,6.34,0,0,0-4.84,11.71Zm0,0"/><path class="cls-71" d="M526.29,509.05a10.69,10.69,0,0,1-12.32.41l16-12.15A10.67,10.67,0,0,1,526.29,509.05Zm3.43-24.92a3.56,3.56,0,0,1-.69,5l-22.68,17.19a3.56,3.56,0,0,1-5-.69l-6.45-8.51,28.36-21.48ZM511.83,436.7a35.62,35.62,0,0,0,6.74,26.83l3.24,4.28-34,25.78-3.23-4.26A36.43,36.43,0,0,0,460,475.49a46.25,46.25,0,0,1-21.84-82.66,48.51,48.51,0,0,1,4.57-3.06,46.36,46.36,0,0,1,56.67,7.73h0A46.11,46.11,0,0,1,511.83,436.7Z"/><path class="cls-3" d="M749.5,810.46v42.92H632.1v-49a48.87,48.87,0,0,0-8.29-27.28,42.73,42.73,0,0,1,25.88-9.51A37,37,0,0,0,708,769a8.73,8.73,0,0,1,1.22-1.36,42.92,42.92,0,0,1,40.28,42.84Zm0,0"/><path class="cls-4" d="M623.81,777.06a48.87,48.87,0,0,1,8.29,27.28v70.83H470.25V804.34a49,49,0,0,1,47.81-49A42.22,42.22,0,0,0,584.69,757a12,12,0,0,1,1.37-1.56,49.07,49.07,0,0,1,37.75,21.67Zm0,0"/><path class="cls-3" d="M476.67,775.75l1.72,1.53a48.85,48.85,0,0,0-8.14,27.06v49H352.67V810.46a42.93,42.93,0,0,1,41.84-42.91A37,37,0,0,0,452.84,769a8.6,8.6,0,0,1,1.2-1.36,42.57,42.57,0,0,1,22.63,8.13Zm0,0"/><circle class="cls-3" cx="423.35" cy="722.59" r="36.38"/><circle class="cls-3" cx="679.1" cy="725.89" r="36.38"/><circle class="cls-4" cx="551.22" cy="706.44" r="39.94"/><path class="cls-3" d="M551.26,606.86a8,8,0,0,1-5.65-2.35,6.54,6.54,0,0,1-1-1.2,8.3,8.3,0,0,1-.72-1.39,6.09,6.09,0,0,1-.45-1.49,7.5,7.5,0,0,1-.16-1.58,8.11,8.11,0,0,1,2.32-5.65,8.27,8.27,0,0,1,11.34,0,6.86,6.86,0,0,1,1,1.22,8.37,8.37,0,0,1,.75,1.39,9.61,9.61,0,0,1,.45,1.5,7.32,7.32,0,0,1,.16,1.54,7.5,7.5,0,0,1-.16,1.58,9.49,9.49,0,0,1-.45,1.49,9.25,9.25,0,0,1-.75,1.39,6.39,6.39,0,0,1-1,1.2A8,8,0,0,1,551.26,606.86Z"/><path class="cls-3" d="M543.26,618a8,8,0,0,1,8-8h0a8,8,0,0,1,8,8h0a8,8,0,0,1-8,8h0A8,8,0,0,1,543.26,618Z"/><path class="cls-3" d="M551.26,645.2a8.36,8.36,0,0,1-1.57-.16,8.07,8.07,0,0,1-2.88-1.2,8.77,8.77,0,0,1-1.2-1,7.49,7.49,0,0,1-1-1.23,8.7,8.7,0,0,1-.72-1.39,6.22,6.22,0,0,1-.45-1.49,7.42,7.42,0,0,1-.16-1.55,7.5,7.5,0,0,1,.16-1.58,6.09,6.09,0,0,1,.45-1.49,8.7,8.7,0,0,1,.72-1.39,6.54,6.54,0,0,1,1-1.2,8.25,8.25,0,0,1,11.31,0,6.39,6.39,0,0,1,1,1.2,9.76,9.76,0,0,1,.75,1.39,9.49,9.49,0,0,1,.45,1.49,7.5,7.5,0,0,1,.16,1.58,7.42,7.42,0,0,1-.16,1.55,7.79,7.79,0,0,1-1.2,2.88,7.31,7.31,0,0,1-1,1.23,7.51,7.51,0,0,1-1.23,1,7.72,7.72,0,0,1-1.36.74,9.55,9.55,0,0,1-1.52.46A8.07,8.07,0,0,1,551.26,645.2Z"/><path class="cls-3" d="M517.68,637.19a8,8,0,0,1,8-8h0a8,8,0,0,1,8,8h0a8,8,0,0,1-8,8h0A8,8,0,0,1,517.68,637.19Zm-25.57,0a8,8,0,0,1,8-8h0a8,8,0,0,1,8,8h0a8,8,0,0,1-8,8h0A8,8,0,0,1,492.11,637.19Zm-25.58,0a8,8,0,0,1,8-8h0a8,8,0,0,1,8,8h0a8,8,0,0,1-8,8h0A8,8,0,0,1,466.53,637.19Zm-25.57,0a8,8,0,0,1,8-8h0a8,8,0,0,1,8,8h0a8,8,0,0,1-8,8h0A8,8,0,0,1,441,637.19Z"/><path class="cls-3" d="M423.39,645.2a8.2,8.2,0,0,1-1.57-.16,10,10,0,0,1-1.5-.46,8.29,8.29,0,0,1-1.38-.74,7.79,7.79,0,0,1-1.21-1,8.59,8.59,0,0,1-1-1.23,9.76,9.76,0,0,1-.75-1.39,11.11,11.11,0,0,1-.45-1.49,7.42,7.42,0,0,1-.16-1.55,8,8,0,0,1,2.35-5.66,8.29,8.29,0,0,1,11.34,0,8,8,0,0,1,2.33,5.66,10.15,10.15,0,0,1-.14,1.55,9.42,9.42,0,0,1-1.2,2.88,7.31,7.31,0,0,1-1,1.23A8.06,8.06,0,0,1,423.39,645.2Z"/><path class="cls-3" d="M645.55,637.19a8,8,0,0,1,8-8h0a8,8,0,0,1,8,8h0a8,8,0,0,1-8,8h0A8,8,0,0,1,645.55,637.19Zm-25.57,0a8,8,0,0,1,8-8h0a8,8,0,0,1,8,8h0a8,8,0,0,1-8,8h0A8,8,0,0,1,620,637.19Zm-25.58,0a8,8,0,0,1,8-8h0a8,8,0,0,1,8,8h0a8,8,0,0,1-8,8h0A8,8,0,0,1,594.4,637.19Zm-25.57,0a8,8,0,0,1,8-8h0a8,8,0,0,1,8,8h0a8,8,0,0,1-8,8h0A8,8,0,0,1,568.83,637.19Zm-25.57,0a8,8,0,0,1,8-8h0a8,8,0,0,1,8,8h0a8,8,0,0,1-8,8h0A8,8,0,0,1,543.26,637.19Zm-25.58,0a8,8,0,0,1,8-8h0a8,8,0,0,1,8,8h0a8,8,0,0,1-8,8h0A8,8,0,0,1,517.68,637.19Zm-25.57,0a8,8,0,0,1,8-8h0a8,8,0,0,1,8,8h0a8,8,0,0,1-8,8h0A8,8,0,0,1,492.11,637.19Zm-25.58,0a8,8,0,0,1,8-8h0a8,8,0,0,1,8,8h0a8,8,0,0,1-8,8h0A8,8,0,0,1,466.53,637.19Zm-25.57,0a8,8,0,0,1,8-8h0a8,8,0,0,1,8,8h0a8,8,0,0,1-8,8h0A8,8,0,0,1,441,637.19Z"/><path class="cls-3" d="M679.13,645.2a8.36,8.36,0,0,1-1.57-.16,8.07,8.07,0,0,1-2.88-1.2,9.51,9.51,0,0,1-1.21-1,7.55,7.55,0,0,1-1.73-2.62,7.29,7.29,0,0,1-.45-1.49,7.43,7.43,0,0,1-.17-1.55,8,8,0,0,1,2.35-5.66,9,9,0,0,1,1.21-1,7.89,7.89,0,0,1,1.38-.72,6.17,6.17,0,0,1,1.5-.45,8,8,0,0,1,9.58,7.85,7.42,7.42,0,0,1-.16,1.55,9.82,9.82,0,0,1-.45,1.49,8.1,8.1,0,0,1-.75,1.39,7.31,7.31,0,0,1-1,1.23A8.06,8.06,0,0,1,679.13,645.2Z"/></svg>